<svg width="766" height="1301" viewBox="0 0 766 1301" fill="none" xmlns="http://www.w3.org/2000/svg">
<path d="M193.091 1053V1056H195.27L195.944 1053.93L193.091 1053ZM24.3636 1053L21.5279 1052.02L20.1543 1056H24.3636V1053ZM281.455 308.273V305.273H279.316L278.619 307.294L281.455 308.273ZM484.364 308.273L487.2 307.295L486.503 305.273H484.364V308.273ZM741.091 1053V1056H745.298L743.927 1052.02L741.091 1053ZM572.364 1053L569.51 1053.93L570.184 1056H572.364V1053ZM385.818 478.455L388.672 477.528L387.998 475.455H385.818V478.455ZM380 478.455V475.455H377.821L377.147 477.526L380 478.455ZM182.545 760.273V757.273H179.545V760.273H182.545ZM581.091 760.273H584.091V757.273H581.091V760.273ZM581.091 883.182V886.182H584.091V883.182H581.091ZM182.545 883.182H179.545V886.182H182.545V883.182ZM193.091 1050H24.3636V1056H193.091V1050ZM27.1994 1053.98L284.29 309.252L278.619 307.294L21.5279 1052.02L27.1994 1053.98ZM281.455 311.273H484.364V305.273H281.455V311.273ZM481.527 309.25L738.255 1053.98L743.927 1052.02L487.2 307.295L481.527 309.25ZM741.091 1050H572.364V1056H741.091V1050ZM575.217 1052.07L388.672 477.528L382.965 479.381L569.51 1053.93L575.217 1052.07ZM385.818 475.455H380V481.455H385.818V475.455ZM377.147 477.526L190.238 1052.07L195.944 1053.93L382.853 479.383L377.147 477.526ZM182.545 763.273H581.091V757.273H182.545V763.273ZM578.091 760.273V883.182H584.091V760.273H578.091ZM581.091 880.182H182.545V886.182H581.091V880.182ZM185.545 883.182V760.273H179.545V883.182H185.545Z" fill="black"/>
<path d="M193.091 992V995H195.27L195.944 992.928L193.091 992ZM24.3636 992L21.5279 991.021L20.1543 995H24.3636V992ZM281.455 247.273V244.273H279.316L278.619 246.294L281.455 247.273ZM484.364 247.273L487.2 246.295L486.503 244.273H484.364V247.273ZM741.091 992V995H745.298L743.927 991.022L741.091 992ZM572.364 992L569.51 992.926L570.184 995H572.364V992ZM385.818 417.455L388.672 416.528L387.998 414.455H385.818V417.455ZM380 417.455V414.455H377.821L377.147 416.526L380 417.455ZM182.545 699.273V696.273H179.545V699.273H182.545ZM581.091 699.273H584.091V696.273H581.091V699.273ZM581.091 822.182V825.182H584.091V822.182H581.091ZM182.545 822.182H179.545V825.182H182.545V822.182ZM193.091 989H24.3636V995H193.091V989ZM27.1994 992.979L284.29 248.252L278.619 246.294L21.5279 991.021L27.1994 992.979ZM281.455 250.273H484.364V244.273H281.455V250.273ZM481.527 248.25L738.255 992.978L743.927 991.022L487.2 246.295L481.527 248.25ZM741.091 989H572.364V995H741.091V989ZM575.217 991.074L388.672 416.528L382.965 418.381L569.51 992.926L575.217 991.074ZM385.818 414.455H380V420.455H385.818V414.455ZM377.147 416.526L190.238 991.072L195.944 992.928L382.853 418.383L377.147 416.526ZM182.545 702.273H581.091V696.273H182.545V702.273ZM578.091 699.273V822.182H584.091V699.273H578.091ZM581.091 819.182H182.545V825.182H581.091V819.182ZM185.545 822.182V699.273H179.545V822.182H185.545Z" fill="black"/>
</svg>
