<svg width="766" height="1399" viewBox="0 0 766 1399" fill="none" xmlns="http://www.w3.org/2000/svg">
<path d="M193.091 1151V1154H195.27L195.944 1151.93L193.091 1151ZM24.3636 1151L21.5279 1150.02L20.1543 1154H24.3636V1151ZM281.455 406.273V403.273H279.316L278.619 405.294L281.455 406.273ZM484.364 406.273L487.2 405.295L486.503 403.273H484.364V406.273ZM741.091 1151V1154H745.298L743.927 1150.02L741.091 1151ZM572.364 1151L569.51 1151.93L570.184 1154H572.364V1151ZM385.818 576.455L388.672 575.528L387.998 573.455H385.818V576.455ZM380 576.455V573.455H377.821L377.147 575.526L380 576.455ZM182.545 858.273V855.273H179.545V858.273H182.545ZM581.091 858.273H584.091V855.273H581.091V858.273ZM581.091 981.182V984.182H584.091V981.182H581.091ZM182.545 981.182H179.545V984.182H182.545V981.182ZM193.091 1148H24.3636V1154H193.091V1148ZM27.1994 1151.98L284.29 407.252L278.619 405.294L21.5279 1150.02L27.1994 1151.98ZM281.455 409.273H484.364V403.273H281.455V409.273ZM481.527 407.25L738.255 1151.98L743.927 1150.02L487.2 405.295L481.527 407.25ZM741.091 1148H572.364V1154H741.091V1148ZM575.217 1150.07L388.672 575.528L382.965 577.381L569.51 1151.93L575.217 1150.07ZM385.818 573.455H380V579.455H385.818V573.455ZM377.147 575.526L190.238 1150.07L195.944 1151.93L382.853 577.383L377.147 575.526ZM182.545 861.273H581.091V855.273H182.545V861.273ZM578.091 858.273V981.182H584.091V858.273H578.091ZM581.091 978.182H182.545V984.182H581.091V978.182ZM185.545 981.182V858.273H179.545V981.182H185.545Z" fill="black"/>
<path d="M193.091 992V995H195.27L195.944 992.928L193.091 992ZM24.3636 992L21.5279 991.021L20.1543 995H24.3636V992ZM281.455 247.273V244.273H279.316L278.619 246.294L281.455 247.273ZM484.364 247.273L487.2 246.295L486.503 244.273H484.364V247.273ZM741.091 992V995H745.298L743.927 991.022L741.091 992ZM572.364 992L569.51 992.926L570.184 995H572.364V992ZM385.818 417.455L388.672 416.528L387.998 414.455H385.818V417.455ZM380 417.455V414.455H377.821L377.147 416.526L380 417.455ZM182.545 699.273V696.273H179.545V699.273H182.545ZM581.091 699.273H584.091V696.273H581.091V699.273ZM581.091 822.182V825.182H584.091V822.182H581.091ZM182.545 822.182H179.545V825.182H182.545V822.182ZM193.091 989H24.3636V995H193.091V989ZM27.1994 992.979L284.29 248.252L278.619 246.294L21.5279 991.021L27.1994 992.979ZM281.455 250.273H484.364V244.273H281.455V250.273ZM481.527 248.25L738.255 992.978L743.927 991.022L487.2 246.295L481.527 248.25ZM741.091 989H572.364V995H741.091V989ZM575.217 991.074L388.672 416.528L382.965 418.381L569.51 992.926L575.217 991.074ZM385.818 414.455H380V420.455H385.818V414.455ZM377.147 416.526L190.238 991.072L195.944 992.928L382.853 418.383L377.147 416.526ZM182.545 702.273H581.091V696.273H182.545V702.273ZM578.091 699.273V822.182H584.091V699.273H578.091ZM581.091 819.182H182.545V825.182H581.091V819.182ZM185.545 822.182V699.273H179.545V822.182H185.545Z" fill="black"/>
</svg>
